<mxfile host="Electron" agent="Mozilla/5.0 (Macintosh; Intel Mac OS X 10_15_7) AppleWebKit/537.36 (KHTML, like Gecko) draw.io/28.2.5 Chrome/138.0.7204.251 Electron/37.6.1 Safari/537.36" version="28.2.5">
  <diagram name="Page-1" id="nwN8FUs3bcOM2yQH4nKQ">
    <mxGraphModel dx="3759" dy="2231" grid="1" gridSize="10" guides="1" tooltips="1" connect="1" arrows="1" fold="1" page="1" pageScale="1" pageWidth="850" pageHeight="1100" math="0" shadow="0">
      <root>
        <mxCell id="0" />
        <mxCell id="1" parent="0" />
        <mxCell id="92CzlJYpDOsHPccTKbnx-94" value="" style="rounded=0;whiteSpace=wrap;html=1;" vertex="1" parent="1">
          <mxGeometry x="-420" y="30" width="1680" height="1330" as="geometry" />
        </mxCell>
        <mxCell id="xm2EJyJnLCStHGxzsCaY-14" style="edgeStyle=orthogonalEdgeStyle;rounded=0;orthogonalLoop=1;jettySize=auto;html=1;entryX=0.5;entryY=0;entryDx=0;entryDy=0;fontSize=18;" parent="1" source="xm2EJyJnLCStHGxzsCaY-5" target="xm2EJyJnLCStHGxzsCaY-6" edge="1">
          <mxGeometry relative="1" as="geometry" />
        </mxCell>
        <mxCell id="92CzlJYpDOsHPccTKbnx-45" style="edgeStyle=orthogonalEdgeStyle;rounded=0;orthogonalLoop=1;jettySize=auto;html=1;entryX=0.5;entryY=0;entryDx=0;entryDy=0;fontSize=18;" edge="1" parent="1" source="xm2EJyJnLCStHGxzsCaY-5" target="xm2EJyJnLCStHGxzsCaY-7">
          <mxGeometry relative="1" as="geometry" />
        </mxCell>
        <mxCell id="xm2EJyJnLCStHGxzsCaY-5" value="API" style="html=1;whiteSpace=wrap;fontSize=18;" parent="1" vertex="1">
          <mxGeometry x="360" y="50" width="120" height="50" as="geometry" />
        </mxCell>
        <mxCell id="xm2EJyJnLCStHGxzsCaY-15" style="edgeStyle=orthogonalEdgeStyle;rounded=0;orthogonalLoop=1;jettySize=auto;html=1;entryX=0.5;entryY=0;entryDx=0;entryDy=0;exitX=0;exitY=0.5;exitDx=0;exitDy=0;fontSize=18;" parent="1" source="xm2EJyJnLCStHGxzsCaY-6" target="xm2EJyJnLCStHGxzsCaY-8" edge="1">
          <mxGeometry relative="1" as="geometry">
            <Array as="points">
              <mxPoint x="-5" y="165" />
              <mxPoint x="-5" y="270" />
              <mxPoint x="-325" y="270" />
            </Array>
          </mxGeometry>
        </mxCell>
        <mxCell id="xm2EJyJnLCStHGxzsCaY-16" style="edgeStyle=orthogonalEdgeStyle;rounded=0;orthogonalLoop=1;jettySize=auto;html=1;entryX=0.5;entryY=0;entryDx=0;entryDy=0;exitX=0;exitY=0.5;exitDx=0;exitDy=0;fontSize=18;" parent="1" source="xm2EJyJnLCStHGxzsCaY-6" target="xm2EJyJnLCStHGxzsCaY-12" edge="1">
          <mxGeometry relative="1" as="geometry">
            <Array as="points">
              <mxPoint x="-5" y="165" />
              <mxPoint x="-5" y="270" />
              <mxPoint x="-165" y="270" />
            </Array>
          </mxGeometry>
        </mxCell>
        <mxCell id="xm2EJyJnLCStHGxzsCaY-17" style="edgeStyle=orthogonalEdgeStyle;rounded=0;orthogonalLoop=1;jettySize=auto;html=1;entryX=0.5;entryY=0;entryDx=0;entryDy=0;fontSize=18;" parent="1" source="xm2EJyJnLCStHGxzsCaY-6" target="xm2EJyJnLCStHGxzsCaY-9" edge="1">
          <mxGeometry relative="1" as="geometry" />
        </mxCell>
        <mxCell id="xm2EJyJnLCStHGxzsCaY-18" style="edgeStyle=orthogonalEdgeStyle;rounded=0;orthogonalLoop=1;jettySize=auto;html=1;entryX=0.5;entryY=0;entryDx=0;entryDy=0;exitX=0;exitY=0.5;exitDx=0;exitDy=0;fontSize=18;" parent="1" source="xm2EJyJnLCStHGxzsCaY-6" target="xm2EJyJnLCStHGxzsCaY-11" edge="1">
          <mxGeometry relative="1" as="geometry">
            <Array as="points">
              <mxPoint x="-5" y="165" />
              <mxPoint x="-5" y="270" />
              <mxPoint x="155" y="270" />
            </Array>
          </mxGeometry>
        </mxCell>
        <mxCell id="xm2EJyJnLCStHGxzsCaY-19" style="edgeStyle=orthogonalEdgeStyle;rounded=0;orthogonalLoop=1;jettySize=auto;html=1;entryX=0.5;entryY=0;entryDx=0;entryDy=0;exitX=0;exitY=0.5;exitDx=0;exitDy=0;fontSize=18;" parent="1" source="xm2EJyJnLCStHGxzsCaY-6" target="xm2EJyJnLCStHGxzsCaY-10" edge="1">
          <mxGeometry relative="1" as="geometry">
            <Array as="points">
              <mxPoint x="-5" y="165" />
              <mxPoint x="-5" y="270" />
              <mxPoint x="315" y="270" />
            </Array>
          </mxGeometry>
        </mxCell>
        <mxCell id="xm2EJyJnLCStHGxzsCaY-6" value="/system" style="html=1;whiteSpace=wrap;fontSize=18;" parent="1" vertex="1">
          <mxGeometry x="130" y="140" width="110" height="50" as="geometry" />
        </mxCell>
        <mxCell id="92CzlJYpDOsHPccTKbnx-46" style="edgeStyle=orthogonalEdgeStyle;rounded=0;orthogonalLoop=1;jettySize=auto;html=1;entryX=0.5;entryY=0;entryDx=0;entryDy=0;curved=0;strokeColor=default;shadow=0;flowAnimation=0;fontSize=18;" edge="1" parent="1" source="xm2EJyJnLCStHGxzsCaY-7" target="92CzlJYpDOsHPccTKbnx-3">
          <mxGeometry relative="1" as="geometry">
            <Array as="points">
              <mxPoint x="870" y="165" />
              <mxPoint x="870" y="280" />
              <mxPoint x="875" y="280" />
            </Array>
          </mxGeometry>
        </mxCell>
        <mxCell id="92CzlJYpDOsHPccTKbnx-47" style="edgeStyle=orthogonalEdgeStyle;rounded=0;orthogonalLoop=1;jettySize=auto;html=1;entryX=0.5;entryY=0;entryDx=0;entryDy=0;fontSize=18;" edge="1" parent="1" source="xm2EJyJnLCStHGxzsCaY-7" target="92CzlJYpDOsHPccTKbnx-4">
          <mxGeometry relative="1" as="geometry">
            <Array as="points">
              <mxPoint x="870" y="165" />
              <mxPoint x="870" y="280" />
              <mxPoint x="995" y="280" />
            </Array>
          </mxGeometry>
        </mxCell>
        <mxCell id="92CzlJYpDOsHPccTKbnx-48" style="edgeStyle=orthogonalEdgeStyle;rounded=0;orthogonalLoop=1;jettySize=auto;html=1;entryX=0.5;entryY=0;entryDx=0;entryDy=0;fontSize=18;" edge="1" parent="1" source="xm2EJyJnLCStHGxzsCaY-7" target="92CzlJYpDOsHPccTKbnx-5">
          <mxGeometry relative="1" as="geometry">
            <Array as="points">
              <mxPoint x="870" y="165" />
              <mxPoint x="870" y="280" />
              <mxPoint x="1115" y="280" />
            </Array>
          </mxGeometry>
        </mxCell>
        <mxCell id="92CzlJYpDOsHPccTKbnx-49" style="edgeStyle=orthogonalEdgeStyle;rounded=0;orthogonalLoop=1;jettySize=auto;html=1;entryX=0.5;entryY=0;entryDx=0;entryDy=0;exitX=1;exitY=0.5;exitDx=0;exitDy=0;fontSize=18;" edge="1" parent="1" source="xm2EJyJnLCStHGxzsCaY-7" target="92CzlJYpDOsHPccTKbnx-2">
          <mxGeometry relative="1" as="geometry">
            <Array as="points">
              <mxPoint x="870" y="165" />
              <mxPoint x="870" y="280" />
              <mxPoint x="755" y="280" />
            </Array>
          </mxGeometry>
        </mxCell>
        <mxCell id="92CzlJYpDOsHPccTKbnx-50" style="edgeStyle=orthogonalEdgeStyle;rounded=0;orthogonalLoop=1;jettySize=auto;html=1;entryX=0.5;entryY=0;entryDx=0;entryDy=0;fontSize=18;" edge="1" parent="1" target="92CzlJYpDOsHPccTKbnx-1">
          <mxGeometry relative="1" as="geometry">
            <mxPoint x="720" y="165" as="sourcePoint" />
            <Array as="points">
              <mxPoint x="870" y="165" />
              <mxPoint x="870" y="280" />
              <mxPoint x="635" y="280" />
            </Array>
          </mxGeometry>
        </mxCell>
        <mxCell id="92CzlJYpDOsHPccTKbnx-51" style="edgeStyle=orthogonalEdgeStyle;rounded=0;orthogonalLoop=1;jettySize=auto;html=1;entryX=0.5;entryY=0;entryDx=0;entryDy=0;exitX=1;exitY=0.5;exitDx=0;exitDy=0;fontSize=18;" edge="1" parent="1" source="xm2EJyJnLCStHGxzsCaY-7" target="92CzlJYpDOsHPccTKbnx-8">
          <mxGeometry relative="1" as="geometry">
            <Array as="points">
              <mxPoint x="870" y="165" />
              <mxPoint x="870" y="280" />
              <mxPoint x="515" y="280" />
            </Array>
          </mxGeometry>
        </mxCell>
        <mxCell id="xm2EJyJnLCStHGxzsCaY-7" value="/projectmanager" style="html=1;whiteSpace=wrap;fontSize=18;" parent="1" vertex="1">
          <mxGeometry x="570" y="140" width="150" height="50" as="geometry" />
        </mxCell>
        <mxCell id="92CzlJYpDOsHPccTKbnx-93" style="edgeStyle=orthogonalEdgeStyle;rounded=0;orthogonalLoop=1;jettySize=auto;html=1;entryX=0.5;entryY=0;entryDx=0;entryDy=0;fontSize=18;" edge="1" parent="1" source="xm2EJyJnLCStHGxzsCaY-8" target="92CzlJYpDOsHPccTKbnx-87">
          <mxGeometry relative="1" as="geometry" />
        </mxCell>
        <mxCell id="xm2EJyJnLCStHGxzsCaY-8" value="/main" style="html=1;whiteSpace=wrap;fontSize=18;" parent="1" vertex="1">
          <mxGeometry x="-380" y="360" width="110" height="50" as="geometry" />
        </mxCell>
        <mxCell id="92CzlJYpDOsHPccTKbnx-91" style="edgeStyle=orthogonalEdgeStyle;rounded=0;orthogonalLoop=1;jettySize=auto;html=1;entryX=0.5;entryY=0;entryDx=0;entryDy=0;fontSize=18;" edge="1" parent="1" source="xm2EJyJnLCStHGxzsCaY-9" target="92CzlJYpDOsHPccTKbnx-80">
          <mxGeometry relative="1" as="geometry" />
        </mxCell>
        <mxCell id="xm2EJyJnLCStHGxzsCaY-9" value="/database" style="html=1;whiteSpace=wrap;fontSize=18;" parent="1" vertex="1">
          <mxGeometry x="-60" y="360" width="110" height="50" as="geometry" />
        </mxCell>
        <mxCell id="92CzlJYpDOsHPccTKbnx-89" style="edgeStyle=orthogonalEdgeStyle;rounded=0;orthogonalLoop=1;jettySize=auto;html=1;entryX=0.5;entryY=0;entryDx=0;entryDy=0;fontSize=18;" edge="1" parent="1" source="xm2EJyJnLCStHGxzsCaY-10" target="92CzlJYpDOsHPccTKbnx-59">
          <mxGeometry relative="1" as="geometry" />
        </mxCell>
        <mxCell id="xm2EJyJnLCStHGxzsCaY-10" value="/user" style="html=1;whiteSpace=wrap;fontSize=18;" parent="1" vertex="1">
          <mxGeometry x="260" y="360" width="110" height="50" as="geometry" />
        </mxCell>
        <mxCell id="92CzlJYpDOsHPccTKbnx-90" style="edgeStyle=orthogonalEdgeStyle;rounded=0;orthogonalLoop=1;jettySize=auto;html=1;entryX=0.5;entryY=0;entryDx=0;entryDy=0;fontSize=18;" edge="1" parent="1" source="xm2EJyJnLCStHGxzsCaY-11" target="92CzlJYpDOsHPccTKbnx-71">
          <mxGeometry relative="1" as="geometry" />
        </mxCell>
        <mxCell id="xm2EJyJnLCStHGxzsCaY-11" value="/role" style="html=1;whiteSpace=wrap;fontSize=18;" parent="1" vertex="1">
          <mxGeometry x="100" y="360" width="110" height="50" as="geometry" />
        </mxCell>
        <mxCell id="92CzlJYpDOsHPccTKbnx-92" style="edgeStyle=orthogonalEdgeStyle;rounded=0;orthogonalLoop=1;jettySize=auto;html=1;entryX=0.5;entryY=0;entryDx=0;entryDy=0;fontSize=18;" edge="1" parent="1" source="xm2EJyJnLCStHGxzsCaY-12" target="92CzlJYpDOsHPccTKbnx-83">
          <mxGeometry relative="1" as="geometry" />
        </mxCell>
        <mxCell id="xm2EJyJnLCStHGxzsCaY-12" value="/application" style="html=1;whiteSpace=wrap;fontSize=18;" parent="1" vertex="1">
          <mxGeometry x="-220" y="360" width="110" height="50" as="geometry" />
        </mxCell>
        <mxCell id="92CzlJYpDOsHPccTKbnx-52" style="edgeStyle=orthogonalEdgeStyle;rounded=0;orthogonalLoop=1;jettySize=auto;html=1;entryX=0.5;entryY=0;entryDx=0;entryDy=0;fontSize=18;" edge="1" parent="1" source="92CzlJYpDOsHPccTKbnx-1" target="92CzlJYpDOsHPccTKbnx-18">
          <mxGeometry relative="1" as="geometry" />
        </mxCell>
        <mxCell id="92CzlJYpDOsHPccTKbnx-1" value="/project" style="html=1;whiteSpace=wrap;fontSize=18;" vertex="1" parent="1">
          <mxGeometry x="580" y="360" width="110" height="50" as="geometry" />
        </mxCell>
        <mxCell id="92CzlJYpDOsHPccTKbnx-54" style="edgeStyle=orthogonalEdgeStyle;rounded=0;orthogonalLoop=1;jettySize=auto;html=1;entryX=0.5;entryY=0;entryDx=0;entryDy=0;fontSize=18;" edge="1" parent="1" source="92CzlJYpDOsHPccTKbnx-2" target="92CzlJYpDOsHPccTKbnx-10">
          <mxGeometry relative="1" as="geometry" />
        </mxCell>
        <mxCell id="92CzlJYpDOsHPccTKbnx-2" value="/contributor" style="html=1;whiteSpace=wrap;fontSize=18;" vertex="1" parent="1">
          <mxGeometry x="700" y="360" width="110" height="50" as="geometry" />
        </mxCell>
        <mxCell id="92CzlJYpDOsHPccTKbnx-55" style="edgeStyle=orthogonalEdgeStyle;rounded=0;orthogonalLoop=1;jettySize=auto;html=1;fontSize=18;" edge="1" parent="1" source="92CzlJYpDOsHPccTKbnx-3" target="92CzlJYpDOsHPccTKbnx-15">
          <mxGeometry relative="1" as="geometry" />
        </mxCell>
        <mxCell id="92CzlJYpDOsHPccTKbnx-3" value="/organization" style="html=1;whiteSpace=wrap;fontSize=18;" vertex="1" parent="1">
          <mxGeometry x="820" y="360" width="110" height="50" as="geometry" />
        </mxCell>
        <mxCell id="92CzlJYpDOsHPccTKbnx-56" style="edgeStyle=orthogonalEdgeStyle;rounded=0;orthogonalLoop=1;jettySize=auto;html=1;entryX=0.5;entryY=0;entryDx=0;entryDy=0;fontSize=18;" edge="1" parent="1" source="92CzlJYpDOsHPccTKbnx-4" target="92CzlJYpDOsHPccTKbnx-32">
          <mxGeometry relative="1" as="geometry" />
        </mxCell>
        <mxCell id="92CzlJYpDOsHPccTKbnx-4" value="/timeentry" style="html=1;whiteSpace=wrap;fontSize=18;" vertex="1" parent="1">
          <mxGeometry x="940" y="360" width="110" height="50" as="geometry" />
        </mxCell>
        <mxCell id="92CzlJYpDOsHPccTKbnx-57" style="edgeStyle=orthogonalEdgeStyle;rounded=0;orthogonalLoop=1;jettySize=auto;html=1;entryX=0.5;entryY=0;entryDx=0;entryDy=0;fontSize=18;" edge="1" parent="1" source="92CzlJYpDOsHPccTKbnx-5" target="92CzlJYpDOsHPccTKbnx-37">
          <mxGeometry relative="1" as="geometry" />
        </mxCell>
        <mxCell id="92CzlJYpDOsHPccTKbnx-5" value="/tag" style="html=1;whiteSpace=wrap;fontSize=18;" vertex="1" parent="1">
          <mxGeometry x="1060" y="360" width="110" height="50" as="geometry" />
        </mxCell>
        <mxCell id="92CzlJYpDOsHPccTKbnx-53" style="edgeStyle=orthogonalEdgeStyle;rounded=0;orthogonalLoop=1;jettySize=auto;html=1;entryX=0.5;entryY=0;entryDx=0;entryDy=0;fontSize=18;" edge="1" parent="1" source="92CzlJYpDOsHPccTKbnx-8" target="92CzlJYpDOsHPccTKbnx-9">
          <mxGeometry relative="1" as="geometry" />
        </mxCell>
        <mxCell id="92CzlJYpDOsHPccTKbnx-8" value="/main" style="html=1;whiteSpace=wrap;fontSize=18;" vertex="1" parent="1">
          <mxGeometry x="460" y="360" width="110" height="50" as="geometry" />
        </mxCell>
        <mxCell id="92CzlJYpDOsHPccTKbnx-9" value="/initialize" style="html=1;whiteSpace=wrap;fontSize=18;" vertex="1" parent="1">
          <mxGeometry x="460" y="480" width="110" height="50" as="geometry" />
        </mxCell>
        <mxCell id="92CzlJYpDOsHPccTKbnx-10" value="/register" style="html=1;whiteSpace=wrap;fontSize=18;" vertex="1" parent="1">
          <mxGeometry x="700" y="480" width="110" height="50" as="geometry" />
        </mxCell>
        <mxCell id="92CzlJYpDOsHPccTKbnx-11" value="/leave" style="html=1;whiteSpace=wrap;fontSize=18;" vertex="1" parent="1">
          <mxGeometry x="700" y="540" width="110" height="50" as="geometry" />
        </mxCell>
        <mxCell id="92CzlJYpDOsHPccTKbnx-12" value="/organization&lt;div&gt;/join&lt;/div&gt;" style="html=1;whiteSpace=wrap;fontSize=18;" vertex="1" parent="1">
          <mxGeometry x="700" y="600" width="110" height="50" as="geometry" />
        </mxCell>
        <mxCell id="92CzlJYpDOsHPccTKbnx-13" value="/organization&lt;div&gt;/list&lt;/div&gt;" style="html=1;whiteSpace=wrap;fontSize=18;" vertex="1" parent="1">
          <mxGeometry x="700" y="722" width="110" height="50" as="geometry" />
        </mxCell>
        <mxCell id="92CzlJYpDOsHPccTKbnx-14" value="/organization&lt;div&gt;/leave&lt;/div&gt;" style="html=1;whiteSpace=wrap;fontSize=18;" vertex="1" parent="1">
          <mxGeometry x="700" y="662" width="110" height="50" as="geometry" />
        </mxCell>
        <mxCell id="92CzlJYpDOsHPccTKbnx-15" value="/create" style="html=1;whiteSpace=wrap;fontSize=18;" vertex="1" parent="1">
          <mxGeometry x="820" y="480" width="110" height="50" as="geometry" />
        </mxCell>
        <mxCell id="92CzlJYpDOsHPccTKbnx-16" value="/dissolve" style="html=1;whiteSpace=wrap;fontSize=18;" vertex="1" parent="1">
          <mxGeometry x="820" y="540" width="110" height="50" as="geometry" />
        </mxCell>
        <mxCell id="92CzlJYpDOsHPccTKbnx-17" value="/transfer" style="html=1;whiteSpace=wrap;fontSize=18;" vertex="1" parent="1">
          <mxGeometry x="820" y="600" width="110" height="50" as="geometry" />
        </mxCell>
        <mxCell id="92CzlJYpDOsHPccTKbnx-18" value="/create" style="html=1;whiteSpace=wrap;fontSize=18;" vertex="1" parent="1">
          <mxGeometry x="580" y="480" width="110" height="50" as="geometry" />
        </mxCell>
        <mxCell id="92CzlJYpDOsHPccTKbnx-19" value="/update" style="html=1;whiteSpace=wrap;fontSize=18;" vertex="1" parent="1">
          <mxGeometry x="580" y="540" width="110" height="50" as="geometry" />
        </mxCell>
        <mxCell id="92CzlJYpDOsHPccTKbnx-20" value="/delete" style="html=1;whiteSpace=wrap;fontSize=18;" vertex="1" parent="1">
          <mxGeometry x="580" y="600" width="110" height="50" as="geometry" />
        </mxCell>
        <mxCell id="92CzlJYpDOsHPccTKbnx-21" value="/get" style="html=1;whiteSpace=wrap;fontSize=18;" vertex="1" parent="1">
          <mxGeometry x="580" y="660" width="110" height="50" as="geometry" />
        </mxCell>
        <mxCell id="92CzlJYpDOsHPccTKbnx-22" value="/transfer" style="html=1;whiteSpace=wrap;fontSize=18;" vertex="1" parent="1">
          <mxGeometry x="580" y="720" width="110" height="50" as="geometry" />
        </mxCell>
        <mxCell id="92CzlJYpDOsHPccTKbnx-23" value="/list/all" style="html=1;whiteSpace=wrap;fontSize=18;" vertex="1" parent="1">
          <mxGeometry x="580" y="780" width="110" height="50" as="geometry" />
        </mxCell>
        <mxCell id="92CzlJYpDOsHPccTKbnx-24" value="/list/byowner" style="html=1;whiteSpace=wrap;fontSize=18;" vertex="1" parent="1">
          <mxGeometry x="580" y="840" width="110" height="50" as="geometry" />
        </mxCell>
        <mxCell id="92CzlJYpDOsHPccTKbnx-25" value="/list/bytag" style="html=1;whiteSpace=wrap;fontSize=18;" vertex="1" parent="1">
          <mxGeometry x="580" y="900" width="110" height="50" as="geometry" />
        </mxCell>
        <mxCell id="92CzlJYpDOsHPccTKbnx-26" value="/contributor&lt;div&gt;/add&lt;/div&gt;" style="html=1;whiteSpace=wrap;fontSize=18;" vertex="1" parent="1">
          <mxGeometry x="580" y="960" width="110" height="50" as="geometry" />
        </mxCell>
        <mxCell id="92CzlJYpDOsHPccTKbnx-27" value="/contributor&lt;div&gt;/remove&lt;/div&gt;" style="html=1;whiteSpace=wrap;fontSize=18;" vertex="1" parent="1">
          <mxGeometry x="580" y="1020" width="110" height="50" as="geometry" />
        </mxCell>
        <mxCell id="92CzlJYpDOsHPccTKbnx-28" value="/contributor&lt;div&gt;/restore&lt;/div&gt;" style="html=1;whiteSpace=wrap;fontSize=18;" vertex="1" parent="1">
          <mxGeometry x="580" y="1080" width="110" height="50" as="geometry" />
        </mxCell>
        <mxCell id="92CzlJYpDOsHPccTKbnx-29" value="/tag/bind" style="html=1;whiteSpace=wrap;fontSize=18;" vertex="1" parent="1">
          <mxGeometry x="580" y="1140" width="110" height="50" as="geometry" />
        </mxCell>
        <mxCell id="92CzlJYpDOsHPccTKbnx-30" value="/tag/unbind" style="html=1;whiteSpace=wrap;fontSize=18;" vertex="1" parent="1">
          <mxGeometry x="580" y="1200" width="110" height="50" as="geometry" />
        </mxCell>
        <mxCell id="92CzlJYpDOsHPccTKbnx-31" value="/tag/get" style="html=1;whiteSpace=wrap;fontSize=18;" vertex="1" parent="1">
          <mxGeometry x="580" y="1260" width="110" height="50" as="geometry" />
        </mxCell>
        <mxCell id="92CzlJYpDOsHPccTKbnx-32" value="/create" style="html=1;whiteSpace=wrap;fontSize=18;" vertex="1" parent="1">
          <mxGeometry x="940" y="480" width="110" height="50" as="geometry" />
        </mxCell>
        <mxCell id="92CzlJYpDOsHPccTKbnx-33" value="/update" style="html=1;whiteSpace=wrap;fontSize=18;" vertex="1" parent="1">
          <mxGeometry x="940" y="540" width="110" height="50" as="geometry" />
        </mxCell>
        <mxCell id="92CzlJYpDOsHPccTKbnx-34" value="/delete" style="html=1;whiteSpace=wrap;fontSize=18;" vertex="1" parent="1">
          <mxGeometry x="940" y="600" width="110" height="50" as="geometry" />
        </mxCell>
        <mxCell id="92CzlJYpDOsHPccTKbnx-35" value="/list&lt;div&gt;/byproject&lt;/div&gt;" style="html=1;whiteSpace=wrap;fontSize=18;" vertex="1" parent="1">
          <mxGeometry x="940" y="660" width="110" height="50" as="geometry" />
        </mxCell>
        <mxCell id="92CzlJYpDOsHPccTKbnx-36" value="/list&lt;div&gt;/bycontributor&lt;/div&gt;" style="html=1;whiteSpace=wrap;fontSize=18;" vertex="1" parent="1">
          <mxGeometry x="940" y="720" width="110" height="50" as="geometry" />
        </mxCell>
        <mxCell id="92CzlJYpDOsHPccTKbnx-37" value="/create" style="html=1;whiteSpace=wrap;fontSize=18;" vertex="1" parent="1">
          <mxGeometry x="1060" y="480" width="110" height="50" as="geometry" />
        </mxCell>
        <mxCell id="92CzlJYpDOsHPccTKbnx-38" value="/update" style="html=1;whiteSpace=wrap;fontSize=18;" vertex="1" parent="1">
          <mxGeometry x="1060" y="540" width="110" height="50" as="geometry" />
        </mxCell>
        <mxCell id="92CzlJYpDOsHPccTKbnx-39" value="/delete" style="html=1;whiteSpace=wrap;fontSize=18;" vertex="1" parent="1">
          <mxGeometry x="1060" y="600" width="110" height="50" as="geometry" />
        </mxCell>
        <mxCell id="92CzlJYpDOsHPccTKbnx-40" value="/transfer" style="html=1;whiteSpace=wrap;fontSize=18;" vertex="1" parent="1">
          <mxGeometry x="1060" y="660" width="110" height="50" as="geometry" />
        </mxCell>
        <mxCell id="92CzlJYpDOsHPccTKbnx-41" value="/get" style="html=1;whiteSpace=wrap;fontSize=18;" vertex="1" parent="1">
          <mxGeometry x="1060" y="720" width="110" height="50" as="geometry" />
        </mxCell>
        <mxCell id="92CzlJYpDOsHPccTKbnx-42" value="/list&lt;div&gt;/byowner&lt;/div&gt;" style="html=1;whiteSpace=wrap;fontSize=18;" vertex="1" parent="1">
          <mxGeometry x="1060" y="780" width="110" height="50" as="geometry" />
        </mxCell>
        <mxCell id="92CzlJYpDOsHPccTKbnx-43" value="/list&lt;div&gt;/byproject&lt;/div&gt;" style="html=1;whiteSpace=wrap;fontSize=18;" vertex="1" parent="1">
          <mxGeometry x="1060" y="840" width="110" height="50" as="geometry" />
        </mxCell>
        <mxCell id="92CzlJYpDOsHPccTKbnx-44" value="/list/all" style="html=1;whiteSpace=wrap;fontSize=18;" vertex="1" parent="1">
          <mxGeometry x="1060" y="900" width="110" height="50" as="geometry" />
        </mxCell>
        <mxCell id="92CzlJYpDOsHPccTKbnx-59" value="/add" style="html=1;whiteSpace=wrap;fontSize=18;" vertex="1" parent="1">
          <mxGeometry x="260" y="480" width="110" height="50" as="geometry" />
        </mxCell>
        <mxCell id="92CzlJYpDOsHPccTKbnx-60" value="/list/app" style="html=1;whiteSpace=wrap;fontSize=18;" vertex="1" parent="1">
          <mxGeometry x="260" y="840" width="110" height="50" as="geometry" />
        </mxCell>
        <mxCell id="92CzlJYpDOsHPccTKbnx-61" value="/list/all" style="html=1;whiteSpace=wrap;fontSize=18;" vertex="1" parent="1">
          <mxGeometry x="260" y="780" width="110" height="50" as="geometry" />
        </mxCell>
        <mxCell id="92CzlJYpDOsHPccTKbnx-62" value="/delete" style="html=1;whiteSpace=wrap;fontSize=18;" vertex="1" parent="1">
          <mxGeometry x="260" y="720" width="110" height="50" as="geometry" />
        </mxCell>
        <mxCell id="92CzlJYpDOsHPccTKbnx-63" value="/change&lt;div&gt;Expiration&lt;/div&gt;" style="html=1;whiteSpace=wrap;fontSize=18;" vertex="1" parent="1">
          <mxGeometry x="260" y="660" width="110" height="50" as="geometry" />
        </mxCell>
        <mxCell id="92CzlJYpDOsHPccTKbnx-64" value="/change&lt;div&gt;Name&lt;/div&gt;" style="html=1;whiteSpace=wrap;fontSize=18;" vertex="1" parent="1">
          <mxGeometry x="260" y="600" width="110" height="50" as="geometry" />
        </mxCell>
        <mxCell id="92CzlJYpDOsHPccTKbnx-65" value="/change&lt;div&gt;Password&lt;/div&gt;" style="html=1;whiteSpace=wrap;fontSize=18;" vertex="1" parent="1">
          <mxGeometry x="260" y="540" width="110" height="50" as="geometry" />
        </mxCell>
        <mxCell id="92CzlJYpDOsHPccTKbnx-66" value="/get" style="html=1;whiteSpace=wrap;fontSize=18;" vertex="1" parent="1">
          <mxGeometry x="260" y="904" width="110" height="50" as="geometry" />
        </mxCell>
        <mxCell id="92CzlJYpDOsHPccTKbnx-67" value="/list/role" style="html=1;whiteSpace=wrap;fontSize=18;" vertex="1" parent="1">
          <mxGeometry x="260" y="964" width="110" height="50" as="geometry" />
        </mxCell>
        <mxCell id="92CzlJYpDOsHPccTKbnx-68" value="/register/app" style="html=1;whiteSpace=wrap;fontSize=18;" vertex="1" parent="1">
          <mxGeometry x="260" y="1024" width="110" height="50" as="geometry" />
        </mxCell>
        <mxCell id="92CzlJYpDOsHPccTKbnx-69" value="/register/role" style="html=1;whiteSpace=wrap;fontSize=18;" vertex="1" parent="1">
          <mxGeometry x="260" y="1084" width="110" height="50" as="geometry" />
        </mxCell>
        <mxCell id="92CzlJYpDOsHPccTKbnx-70" value="/register&lt;div&gt;/leaveApp&lt;/div&gt;" style="html=1;whiteSpace=wrap;fontSize=18;" vertex="1" parent="1">
          <mxGeometry x="260" y="1142" width="110" height="50" as="geometry" />
        </mxCell>
        <mxCell id="92CzlJYpDOsHPccTKbnx-71" value="/list" style="html=1;whiteSpace=wrap;fontSize=18;" vertex="1" parent="1">
          <mxGeometry x="100" y="479" width="110" height="50" as="geometry" />
        </mxCell>
        <mxCell id="92CzlJYpDOsHPccTKbnx-72" value="/route/bind" style="html=1;whiteSpace=wrap;fontSize=18;" vertex="1" parent="1">
          <mxGeometry x="100" y="839" width="110" height="50" as="geometry" />
        </mxCell>
        <mxCell id="92CzlJYpDOsHPccTKbnx-73" value="/route/list" style="html=1;whiteSpace=wrap;fontSize=18;" vertex="1" parent="1">
          <mxGeometry x="100" y="779" width="110" height="50" as="geometry" />
        </mxCell>
        <mxCell id="92CzlJYpDOsHPccTKbnx-74" value="/delete" style="html=1;whiteSpace=wrap;fontSize=18;" vertex="1" parent="1">
          <mxGeometry x="100" y="719" width="110" height="50" as="geometry" />
        </mxCell>
        <mxCell id="92CzlJYpDOsHPccTKbnx-75" value="/update" style="html=1;whiteSpace=wrap;fontSize=18;" vertex="1" parent="1">
          <mxGeometry x="100" y="659" width="110" height="50" as="geometry" />
        </mxCell>
        <mxCell id="92CzlJYpDOsHPccTKbnx-76" value="/add" style="html=1;whiteSpace=wrap;fontSize=18;" vertex="1" parent="1">
          <mxGeometry x="100" y="599" width="110" height="50" as="geometry" />
        </mxCell>
        <mxCell id="92CzlJYpDOsHPccTKbnx-77" value="/get" style="html=1;whiteSpace=wrap;fontSize=18;" vertex="1" parent="1">
          <mxGeometry x="100" y="539" width="110" height="50" as="geometry" />
        </mxCell>
        <mxCell id="92CzlJYpDOsHPccTKbnx-78" value="/route&lt;div&gt;/delete&lt;/div&gt;" style="html=1;whiteSpace=wrap;fontSize=18;" vertex="1" parent="1">
          <mxGeometry x="100" y="903" width="110" height="50" as="geometry" />
        </mxCell>
        <mxCell id="92CzlJYpDOsHPccTKbnx-79" value="/route&lt;div&gt;/unbind&lt;/div&gt;" style="html=1;whiteSpace=wrap;fontSize=18;" vertex="1" parent="1">
          <mxGeometry x="100" y="963" width="110" height="50" as="geometry" />
        </mxCell>
        <mxCell id="92CzlJYpDOsHPccTKbnx-80" value="/list" style="html=1;whiteSpace=wrap;fontSize=18;" vertex="1" parent="1">
          <mxGeometry x="-60" y="479" width="110" height="50" as="geometry" />
        </mxCell>
        <mxCell id="92CzlJYpDOsHPccTKbnx-81" value="/create" style="html=1;whiteSpace=wrap;fontSize=18;" vertex="1" parent="1">
          <mxGeometry x="-60" y="540" width="110" height="50" as="geometry" />
        </mxCell>
        <mxCell id="92CzlJYpDOsHPccTKbnx-82" value="/delete" style="html=1;whiteSpace=wrap;fontSize=18;" vertex="1" parent="1">
          <mxGeometry x="-60" y="600" width="110" height="50" as="geometry" />
        </mxCell>
        <mxCell id="92CzlJYpDOsHPccTKbnx-83" value="/list" style="html=1;whiteSpace=wrap;fontSize=18;" vertex="1" parent="1">
          <mxGeometry x="-220" y="480" width="110" height="50" as="geometry" />
        </mxCell>
        <mxCell id="92CzlJYpDOsHPccTKbnx-84" value="/get" style="html=1;whiteSpace=wrap;fontSize=18;" vertex="1" parent="1">
          <mxGeometry x="-220" y="540" width="110" height="50" as="geometry" />
        </mxCell>
        <mxCell id="92CzlJYpDOsHPccTKbnx-85" value="/add" style="html=1;whiteSpace=wrap;fontSize=18;" vertex="1" parent="1">
          <mxGeometry x="-220" y="600" width="110" height="50" as="geometry" />
        </mxCell>
        <mxCell id="92CzlJYpDOsHPccTKbnx-86" value="/delete" style="html=1;whiteSpace=wrap;fontSize=18;" vertex="1" parent="1">
          <mxGeometry x="-220" y="659" width="110" height="50" as="geometry" />
        </mxCell>
        <mxCell id="92CzlJYpDOsHPccTKbnx-87" value="/initialize" style="html=1;whiteSpace=wrap;fontSize=18;" vertex="1" parent="1">
          <mxGeometry x="-380" y="480" width="110" height="50" as="geometry" />
        </mxCell>
        <mxCell id="92CzlJYpDOsHPccTKbnx-88" value="/token/get" style="html=1;whiteSpace=wrap;fontSize=18;" vertex="1" parent="1">
          <mxGeometry x="-380" y="540" width="110" height="50" as="geometry" />
        </mxCell>
      </root>
    </mxGraphModel>
  </diagram>
</mxfile>
